<?xml version="1.0" standalone="no"?>
<!DOCTYPE svg PUBLIC "-//W3C//DTD SVG 20010904//EN"
 "http://www.w3.org/TR/2001/REC-SVG-20010904/DTD/svg10.dtd">
<svg version="1.0" xmlns="http://www.w3.org/2000/svg"
 width="300.000000pt" height="300.000000pt" viewBox="0 0 300.000000 300.000000"
 preserveAspectRatio="xMidYMid meet">
<metadata>
Created by potrace 1.10, written by Peter Selinger 2001-2011
</metadata>
<g transform="translate(0.000000,300.000000) scale(0.100000,-0.100000)"
fill="#ff0000" stroke="none">
<path d="M1193 2969 c-579 -121 -1041 -583 -1163 -1162 -11 -51 -19 -110 -19
-132 1 -37 2 -35 9 15 15 99 43 219 51 215 4 -3 5 5 1 17 -3 13 -1 19 5 15 7
-5 9 0 6 13 -3 12 0 20 6 20 7 0 10 4 6 9 -7 12 33 113 48 123 7 4 118 8 247
8 145 0 229 -4 221 -9 -12 -8 -10 -16 12 -50 22 -33 24 -40 10 -43 -13 -2 -11
-9 12 -36 21 -25 25 -36 16 -42 -15 -8 -3 -37 23 -60 20 -16 20 -30 1 -30 -24
0 -18 -16 20 -49 39 -34 42 -41 20 -41 -26 0 -16 -22 30 -66 42 -41 43 -43 22
-50 -20 -6 -19 -9 21 -44 34 -31 39 -39 26 -44 -15 -6 -15 -8 2 -27 10 -11 31
-28 46 -37 32 -19 36 -32 11 -32 -13 -1 -6 -12 25 -40 37 -33 41 -40 26 -48
-14 -8 -9 -15 30 -47 34 -29 43 -42 35 -51 -8 -10 1 -21 35 -46 26 -18 44 -38
42 -45 -5 -12 69 -83 86 -83 4 0 8 -8 8 -17 0 -10 23 -41 52 -69 76 -73 190
-193 223 -234 l28 -35 -8 35 c-5 24 -30 56 -84 109 -129 128 -252 264 -271
302 -10 19 -26 42 -36 50 -9 7 -28 32 -42 54 -14 22 -31 44 -38 48 -8 4 -14
16 -14 27 0 10 -11 32 -25 48 -14 17 -25 37 -25 46 0 8 -13 30 -29 48 -15 18
-31 43 -35 54 -4 12 -15 29 -26 39 -11 10 -20 31 -20 47 0 15 -3 28 -7 28 -14
0 -53 66 -53 89 0 13 -9 34 -20 48 -11 14 -17 30 -14 35 4 5 0 24 -9 41 -19
41 -36 92 -48 141 -5 21 -21 64 -35 94 -15 34 -24 68 -22 89 3 33 4 34 20 16
9 -10 30 -32 46 -50 16 -18 33 -45 37 -60 7 -30 64 -108 120 -163 19 -19 35
-38 35 -43 0 -13 81 -125 122 -170 21 -23 41 -50 44 -61 4 -11 14 -28 24 -38
9 -10 23 -31 31 -46 8 -15 16 -29 19 -32 16 -15 79 -132 93 -173 8 -25 24 -56
35 -67 10 -11 25 -39 32 -63 7 -23 21 -53 32 -66 16 -21 77 -140 83 -163 2 -5
4 -10 5 -13 1 -3 3 -8 5 -12 1 -5 4 -15 7 -23 3 -8 11 -33 18 -55 16 -52 52
-125 61 -125 4 0 -2 23 -12 51 -11 28 -31 90 -45 137 -13 47 -29 89 -35 93 -6
3 -17 36 -26 73 -11 51 -18 64 -27 57 -9 -8 -18 9 -36 70 -16 56 -26 77 -33
70 -18 -18 -27 -13 -27 14 0 45 -23 116 -37 111 -12 -5 -17 4 -28 62 -5 25
-10 30 -19 23 -18 -15 -26 -3 -26 38 0 41 -14 70 -24 52 -13 -20 -24 -11 -31
26 -9 51 -23 73 -40 67 -9 -4 -16 3 -21 23 -10 40 -14 45 -29 33 -10 -8 -14
-1 -19 29 -6 42 -23 62 -35 42 -4 -6 -15 13 -25 44 -15 50 -36 81 -36 56 0
-24 -18 -9 -26 22 -7 21 -16 32 -29 32 -10 0 -21 7 -23 15 -17 54 -23 62 -35
52 -9 -8 -17 0 -31 34 -10 24 -23 44 -29 44 -7 0 -21 15 -32 34 -33 55 -138
206 -141 203 -2 -2 13 -40 32 -86 30 -69 59 -188 49 -199 -2 -2 -12 1 -23 7
-13 7 -91 11 -201 11 -212 0 -206 -5 -139 106 154 256 359 443 630 574 57 27
139 60 183 74 67 20 315 76 339 76 4 0 4 5 1 10 -10 15 -100 11 -202 -11z"/>
<path d="M1600 2980 c0 -5 2 -10 5 -10 21 0 303 -64 351 -79 289 -95 538 -276
721 -523 37 -51 74 -104 82 -118 20 -35 51 -98 51 -105 0 -3 -102 -5 -226 -5
-145 0 -233 -4 -246 -11 -24 -13 -42 5 -32 31 4 8 8 35 10 60 2 24 17 87 34
138 18 51 30 95 27 98 -2 2 -18 -22 -35 -53 -77 -145 -88 -163 -100 -163 -7 0
-15 -14 -19 -31 -3 -19 -10 -28 -19 -25 -14 5 -24 -14 -24 -45 0 -16 -5 -19
-20 -14 -17 5 -20 2 -20 -25 0 -24 -4 -31 -15 -26 -17 6 -35 -22 -35 -54 0
-17 -4 -21 -17 -16 -21 8 -33 -10 -33 -51 0 -34 -14 -51 -26 -31 -10 16 -22
-16 -23 -60 -1 -28 -4 -32 -20 -27 -16 5 -20 -1 -26 -34 -4 -27 -11 -38 -19
-35 -16 6 -22 -8 -31 -70 -7 -44 -9 -46 -25 -31 -16 15 -18 13 -24 -22 -3 -21
-6 -51 -6 -68 0 -22 -3 -26 -12 -17 -18 18 -28 14 -28 -12 0 -44 -12 -86 -25
-86 -17 0 -25 -23 -25 -71 0 -28 -4 -37 -14 -33 -10 4 -15 -11 -21 -60 -5 -50
-10 -64 -21 -59 -10 4 -14 -3 -15 -23 0 -16 -3 -23 -6 -16 -2 6 -11 12 -18 12
-11 0 -9 11 7 46 15 35 17 48 8 54 -9 6 -8 14 3 36 26 52 30 74 13 74 -14 0
-13 7 4 50 24 61 26 84 5 76 -19 -7 -19 -7 5 45 24 53 25 69 5 69 -8 0 -15 2
-15 4 0 2 7 20 15 39 8 20 15 44 15 53 0 10 -5 14 -15 10 -19 -7 -19 7 -1 42
7 15 17 42 21 60 6 31 5 33 -14 27 -20 -6 -20 -5 -6 29 22 52 20 75 -6 69 -19
-5 -20 -4 -10 15 6 11 11 37 11 56 0 29 -3 34 -17 29 -13 -5 -15 -2 -10 11 4
10 10 36 14 58 4 31 3 40 -7 36 -11 -3 -22 -50 -23 -103 0 -11 5 -72 11 -135
6 -63 8 -119 5 -124 -3 -5 -6 -59 -6 -120 1 -60 -2 -119 -6 -131 -4 -11 -5
-31 -1 -45 4 -14 3 -35 -1 -48 -5 -12 -11 -54 -13 -92 -2 -38 -10 -95 -17
-126 -10 -43 -10 -60 -1 -75 6 -10 9 -33 7 -51 l-6 -33 18 33 c9 17 20 32 25
32 13 0 9 -68 -4 -73 -7 -2 -11 -7 -8 -10 12 -13 30 11 34 47 3 21 11 45 18
55 20 23 36 61 44 101 3 19 13 44 20 55 8 11 14 31 14 45 0 14 9 36 20 50 11
14 20 31 20 38 0 16 82 176 92 180 5 2 8 11 8 20 0 10 18 44 40 77 22 33 40
65 40 72 0 7 5 13 10 13 6 0 10 4 10 9 0 9 78 142 89 151 3 3 12 16 19 29 8
13 22 39 33 58 10 18 19 40 19 48 0 8 9 19 20 25 11 6 20 20 20 30 0 11 6 20
14 20 8 0 18 9 21 20 4 11 11 18 16 15 5 -4 9 3 9 14 0 11 5 23 10 26 12 8 12
-2 0 -90 -6 -38 -16 -78 -23 -90 -7 -11 -14 -37 -15 -58 -2 -20 -7 -48 -11
-60 -5 -13 -7 -35 -4 -49 3 -14 -3 -40 -12 -58 -9 -18 -14 -42 -11 -54 3 -13
-3 -35 -14 -54 -11 -18 -20 -42 -20 -53 0 -12 -9 -32 -20 -46 -11 -14 -20 -35
-20 -45 0 -11 -9 -33 -21 -49 -11 -16 -18 -29 -14 -29 3 0 -2 -17 -13 -38 -11
-20 -25 -48 -31 -62 -6 -14 -25 -45 -41 -70 -17 -25 -38 -58 -48 -74 -9 -16
-31 -49 -48 -75 -17 -26 -34 -57 -38 -69 -4 -12 -18 -34 -30 -50 -23 -27 -42
-70 -38 -85 1 -5 -1 -6 -6 -3 -5 3 -20 -7 -33 -22 -44 -49 -168 -216 -163
-221 2 -2 -1 -10 -7 -18 -6 -7 -8 -13 -3 -13 5 1 36 37 69 82 33 45 86 110
118 144 32 35 56 67 53 72 -3 5 15 31 40 57 29 29 42 50 35 54 -7 5 4 22 29
46 25 24 38 45 35 55 -3 10 10 31 34 54 22 21 37 44 35 50 -3 7 9 25 26 41 30
29 39 55 19 55 -6 0 3 13 20 29 32 30 40 51 19 51 -7 0 2 15 20 33 36 37 39
47 16 47 -11 0 -2 15 26 48 39 43 40 47 21 50 -21 3 -20 6 14 43 38 42 44 59
20 59 -21 0 -19 10 11 64 23 42 25 74 3 61 -14 -9 -11 2 11 45 24 47 25 60 5
60 -12 0 -13 4 -3 25 l11 25 273 0 c295 0 304 -2 304 -55 0 -13 5 -25 10 -27
6 -2 12 -14 12 -28 1 -14 6 -28 11 -31 5 -4 10 -18 10 -33 1 -14 6 -26 11 -26
4 0 6 -11 4 -25 -3 -15 -1 -22 5 -18 6 4 8 -2 5 -15 -4 -12 -1 -22 4 -22 6 0
8 -13 5 -32 -3 -18 -3 -26 1 -18 3 8 11 -16 18 -55 7 -44 12 -58 13 -37 0 18
-8 76 -20 129 -127 584 -600 1046 -1188 1157 -94 18 -181 21 -181 6z"/>
<path d="M1567 2665 c-26 -183 -28 -195 -38 -195 -5 0 -9 -9 -9 -20 0 -10 -5
-31 -12 -45 -8 -18 -8 -29 -1 -36 7 -7 13 3 17 35 4 25 11 48 15 50 5 3 14 33
21 68 8 34 15 56 18 48 2 -8 7 -24 12 -35 5 -11 11 -31 14 -45 2 -14 2 9 -1
50 -3 41 -9 116 -12 165 l-6 90 -18 -130z"/>
<path d="M1610 2442 c0 -11 6 -39 13 -63 8 -24 12 -50 9 -58 -3 -8 0 -11 7 -7
14 9 15 66 1 66 -5 0 -10 18 -10 40 0 22 -4 40 -10 40 -5 0 -10 -8 -10 -18z"/>
<path d="M1487 2343 c-10 -9 -9 -61 2 -67 4 -3 7 7 5 22 -1 14 2 32 8 39 11
13 -3 19 -15 6z"/>
<path d="M1649 2253 c4 -40 5 -44 12 -23 11 40 10 70 -4 70 -8 0 -11 -14 -8
-47z"/>
<path d="M1451 2253 c0 -10 4 -36 9 -58 8 -39 8 -38 7 18 0 31 -4 57 -9 57 -4
0 -8 -8 -7 -17z"/>
<path d="M1420 2141 c0 -18 -4 -19 -28 -10 -44 15 -608 7 -624 -8 -10 -10 55
-13 325 -13 198 0 337 -4 337 -9 0 -5 3 -17 7 -27 5 -13 3 -16 -10 -11 -24 9
-27 -3 -12 -46 12 -35 12 -37 -6 -32 -23 8 -24 -4 -4 -52 19 -45 19 -46 -6
-38 -19 6 -20 4 -14 -27 4 -18 13 -48 21 -67 14 -33 14 -33 -11 -27 -30 8 -29
12 -6 -57 17 -47 17 -57 5 -57 -18 0 -18 -7 1 -60 8 -23 15 -44 15 -46 0 -2
-7 -4 -15 -4 -20 0 -19 -9 5 -72 24 -63 23 -58 5 -58 -20 0 -19 -9 5 -72 24
-63 23 -56 5 -60 -12 -2 -10 -14 10 -63 17 -42 21 -61 13 -66 -8 -5 -5 -23 10
-63 12 -31 19 -62 16 -69 -5 -13 40 -195 52 -206 3 -3 3 12 0 34 -12 76 -25
150 -32 180 -5 27 -12 79 -30 250 -12 111 -15 190 -18 398 -2 119 -1 217 3
217 3 0 7 32 9 71 1 39 6 78 11 86 11 21 -9 103 -26 103 -7 0 -13 -9 -13 -19z"/>
<path d="M1725 2133 c-69 -17 -17 -23 186 -23 199 1 222 2 205 15 -16 12 -55
15 -195 14 -97 -1 -185 -3 -196 -6z"/>
<path d="M2994 1505 c0 -82 2 -115 3 -72 2 43 2 110 0 150 -1 40 -3 5 -3 -78z"/>
<path d="M4 1500 c0 -74 1 -105 3 -67 2 37 2 97 0 135 -2 37 -3 6 -3 -68z"/>
<path d="M2745 1535 c-38 -19 -77 -34 -85 -35 -9 0 -25 -7 -37 -15 -14 -9 -23
-11 -25 -4 -2 6 -20 -1 -42 -16 -28 -19 -41 -23 -46 -14 -8 12 -53 -13 -80
-46 -11 -14 -14 -14 -25 2 -11 15 -17 11 -59 -31 -43 -43 -48 -45 -53 -26 -5
20 -6 20 -26 3 -11 -10 -28 -31 -38 -47 l-18 -30 -9 23 -8 23 -27 -32 c-15
-17 -27 -36 -27 -41 0 -6 -8 -8 -19 -4 -14 4 -26 -5 -49 -40 -18 -27 -33 -41
-37 -35 -9 14 -44 -16 -56 -47 -5 -13 -14 -20 -21 -18 -8 3 -23 -13 -38 -40
-14 -25 -30 -43 -37 -41 -7 3 -29 -21 -50 -54 -21 -32 -43 -59 -49 -59 -7 -1
-20 -13 -29 -28 -10 -16 -37 -50 -60 -78 -22 -27 -47 -59 -55 -69 -14 -18 -14
-18 5 -9 21 12 105 101 105 113 0 4 20 26 45 49 25 23 45 46 45 51 0 25 187
194 294 266 17 12 37 29 45 38 7 9 19 16 25 16 7 0 27 11 46 25 19 14 40 23
47 21 7 -3 31 10 54 29 22 19 51 35 63 35 12 0 31 6 42 14 27 19 194 75 194
65 0 -12 -98 -123 -219 -249 -56 -58 -101 -108 -101 -113 0 -4 -12 -13 -27
-19 -16 -7 -37 -22 -48 -33 -11 -12 -33 -27 -50 -35 -16 -8 -41 -26 -55 -40
-14 -14 -44 -31 -65 -39 -22 -8 -51 -22 -64 -32 -13 -11 -31 -19 -41 -19 -9 0
-34 -13 -56 -30 -21 -16 -47 -30 -56 -30 -10 0 -18 -4 -18 -8 0 -5 -26 -16
-57 -26 -31 -10 -63 -24 -71 -32 -7 -8 -20 -14 -28 -14 -9 0 -22 -7 -30 -15
-9 -8 -14 -15 -12 -15 17 0 267 104 296 123 20 13 52 30 70 37 17 7 32 16 32
20 0 4 27 14 61 24 50 14 59 19 54 35 -4 15 5 22 55 40 50 18 60 26 55 41 -4
14 1 19 28 24 18 3 42 12 52 20 16 12 17 16 6 30 -11 13 -10 17 5 22 59 18 85
35 80 52 -4 13 4 21 34 34 27 11 38 21 34 31 -3 9 8 22 31 36 22 13 35 27 32
35 -3 8 8 20 29 30 19 9 34 22 32 29 -2 11 99 114 177 181 41 35 15 31 -70 -9z"/>
<path d="M160 1486 c0 -3 28 -22 63 -42 34 -21 96 -73 139 -116 42 -43 81 -78
88 -78 7 0 9 -8 5 -20 -5 -16 1 -23 32 -37 21 -10 39 -18 41 -19 1 -1 0 -9 -4
-18 -5 -14 -31 -16 -228 -16 -121 0 -226 4 -232 8 -15 9 -24 41 -40 137 l-14
80 5 -72 c13 -184 144 -505 282 -688 225 -299 545 -500 910 -574 91 -19 214
-29 201 -16 -2 3 -58 16 -124 30 -159 34 -202 45 -249 65 -11 5 -42 16 -70 26
-27 9 -54 21 -59 26 -6 4 -18 8 -28 8 -10 0 -18 4 -18 8 0 5 -19 17 -42 27
-82 35 -248 156 -335 243 -136 134 -240 280 -314 437 -18 39 -33 72 -34 75 -1
3 -5 19 -10 35 -4 17 -12 35 -17 42 -9 12 -15 70 -7 78 3 2 90 5 194 6 105 1
199 5 210 9 26 9 97 -19 91 -37 -6 -14 60 -53 89 -53 18 0 20 -11 4 -27 -18
-18 33 -39 81 -34 9 1 5 7 -12 16 -14 8 -40 27 -57 42 -16 16 -55 48 -85 73
-30 25 -55 50 -55 55 -1 6 -39 51 -86 100 -85 91 -101 114 -66 95 11 -5 26
-10 35 -10 8 0 27 -5 43 -11 15 -6 30 -11 33 -11 3 0 22 -9 42 -19 21 -10 44
-19 51 -19 8 0 26 -9 40 -20 14 -11 36 -20 49 -20 12 -1 39 -14 58 -30 19 -17
42 -30 51 -30 9 0 24 -9 33 -19 10 -11 32 -25 49 -32 18 -7 44 -21 59 -31 14
-10 33 -18 42 -18 9 0 32 -15 51 -34 19 -19 43 -37 54 -41 11 -3 29 -17 40
-31 10 -13 23 -24 29 -24 5 0 28 -20 50 -45 22 -25 45 -45 50 -45 5 0 33 -26
61 -57 49 -54 133 -121 116 -92 -5 8 -32 39 -61 69 -29 30 -62 68 -75 83 -17
22 -24 26 -31 15 -7 -9 -11 -10 -14 -1 -14 32 -66 93 -78 91 -8 -2 -29 17 -47
42 -18 24 -34 39 -37 32 -7 -21 -17 -14 -50 32 l-32 45 27 4 c20 3 16 4 -14 6
-34 1 -41 -2 -37 -14 4 -8 1 -15 -5 -15 -6 0 -11 6 -12 13 0 6 -14 23 -31 37
-24 19 -33 21 -36 10 -3 -9 -17 1 -44 31 -33 37 -40 42 -50 28 -9 -13 -18 -7
-59 35 -42 44 -49 48 -49 29 0 -30 -5 -29 -47 12 -24 23 -40 32 -46 26 -7 -7
-21 -1 -40 15 -20 17 -33 22 -40 15 -7 -7 -21 -1 -44 16 -26 20 -36 24 -43 14
-5 -9 -10 -10 -14 -3 -3 6 -23 16 -44 22 -20 7 -76 27 -123 46 -82 32 -109 40
-109 30z"/>
<path d="M2976 1288 c-4 -38 -11 -68 -16 -68 -4 0 -6 -9 -3 -19 3 -10 0 -28
-6 -40 -11 -20 -18 -21 -258 -21 -228 0 -288 -4 -202 -14 19 -2 119 -4 222 -5
113 -1 186 -5 182 -10 -3 -5 -1 -12 4 -15 10 -6 -4 -83 -18 -101 -5 -5 -14
-28 -21 -50 -7 -22 -17 -45 -22 -51 -5 -7 -22 -38 -38 -70 -78 -160 -221 -334
-380 -466 -60 -50 -247 -168 -266 -168 -6 0 -22 -8 -35 -19 -13 -10 -49 -26
-79 -35 -30 -10 -68 -24 -85 -31 -34 -15 -59 -22 -95 -29 -14 -2 -45 -9 -70
-15 -25 -6 -81 -19 -125 -29 -78 -17 -79 -17 -35 -20 63 -5 216 24 338 64 383
125 707 407 883 769 72 150 148 417 137 485 -2 14 -7 -5 -12 -42z"/>
<path d="M780 956 c-14 -17 6 -34 50 -42 20 -4 35 -14 37 -25 4 -12 21 -23 47
-29 63 -17 66 -18 66 -35 0 -8 3 -15 8 -15 35 0 127 -22 133 -31 4 -7 58 -27
120 -45 113 -33 167 -43 119 -22 -14 7 -43 20 -64 30 -21 9 -66 25 -100 33
-34 9 -62 20 -64 25 -2 6 -14 10 -27 10 -13 0 -26 4 -30 10 -3 5 -12 7 -20 4
-15 -6 -75 25 -75 38 0 4 -11 8 -25 8 -14 0 -25 5 -25 10 0 6 -6 10 -13 10 -7
0 -22 7 -32 15 -64 49 -94 63 -105 51z"/>
<path d="M1958 725 c-28 -10 -38 -11 -41 -2 -3 9 -15 9 -51 -1 -26 -7 -52 -10
-57 -7 -5 3 -39 -4 -76 -17 -36 -13 -59 -24 -50 -26 9 -2 25 2 36 7 11 6 48
11 83 11 37 0 69 5 76 12 9 9 15 9 23 1 8 -8 20 -8 41 -1 43 15 208 0 298 -27
60 -18 149 -51 155 -57 13 -13 -257 -78 -324 -78 -47 0 -250 38 -266 50 -14
11 -190 60 -214 60 -11 0 -26 -6 -33 -13 -7 -7 -26 -14 -43 -15 -16 -1 -64
-20 -106 -42 -43 -22 -84 -40 -92 -40 -15 0 -104 -25 -142 -40 -35 -13 -125
-30 -164 -30 -21 0 -52 -5 -69 -11 -17 -6 -39 -9 -49 -7 -14 3 -6 16 42 66 33
34 65 62 71 62 6 0 23 9 38 21 14 11 26 18 26 15 0 -3 17 0 38 8 55 20 150 36
218 37 50 0 55 2 34 11 -35 14 -231 1 -244 -17 -6 -8 -29 -15 -51 -17 -27 -2
-40 -8 -40 -17 0 -8 -13 -18 -29 -22 -15 -4 -49 -30 -75 -57 -25 -27 -79 -74
-119 -106 -40 -32 -71 -60 -68 -63 2 -3 34 7 70 21 36 15 89 31 117 36 29 6
59 15 67 22 11 10 17 9 26 -4 11 -15 15 -16 34 -2 11 8 34 14 49 12 15 -1 42
6 60 15 17 9 38 14 46 11 8 -3 34 4 57 16 23 12 48 19 57 16 14 -6 86 27 155
70 21 13 40 24 43 24 10 0 4 -198 -10 -295 -7 -55 -12 -102 -9 -104 19 -19 41
103 51 284 6 113 13 135 42 135 9 0 77 -20 151 -44 74 -24 160 -47 190 -50 30
-4 67 -12 82 -18 17 -6 33 -6 43 -1 11 6 32 6 57 -1 34 -9 41 -8 49 7 7 12 23
17 59 17 27 0 52 5 55 10 3 6 19 10 35 10 16 0 32 5 35 10 3 6 53 10 113 11
l107 1 -60 29 c-33 16 -68 29 -77 29 -9 0 -19 4 -23 9 -3 6 -26 13 -50 17 -25
3 -48 10 -51 15 -3 5 -18 9 -35 9 -16 0 -29 5 -29 11 0 7 -12 9 -35 5 -29 -6
-35 -4 -35 10 0 13 -6 15 -34 10 -19 -4 -37 -2 -40 3 -4 6 -18 6 -39 0 -21 -6
-33 -6 -35 1 -5 13 -18 12 -64 -5z"/>
<path d="M1473 3 c15 -2 39 -2 55 0 15 2 2 4 -28 4 -30 0 -43 -2 -27 -4z"/>
</g>
</svg>
